<svg xmlns="http://www.w3.org/2000/svg" viewBox="0 0 512 512">
  <rect width="512" height="512" rx="96" fill="#f7f4ed"/>
  <rect x="68" y="302" width="376" height="96" rx="18" fill="#292522"/>
  <path d="M92 302h40v96H92zM172 302h40v96h-40zM252 302h40v96h-40zM332 302h40v96h-40zM412 302h32v96h-32z" fill="#fffdf8"/>
  <path d="M132 302h28v62h-28zM212 302h28v62h-28zM292 302h28v62h-28zM372 302h28v62h-28z" fill="#111"/>
  <path d="M86 144h340M86 176h340M86 208h340M86 240h340M86 272h340" stroke="#292522" stroke-width="10" stroke-linecap="round"/>
  <ellipse cx="306" cy="208" rx="34" ry="24" transform="rotate(-18 306 208)" fill="#e2563f"/>
  <path d="M334 203v-96" stroke="#e2563f" stroke-width="12" stroke-linecap="round"/>
  <ellipse cx="218" cy="240" rx="34" ry="24" transform="rotate(-18 218 240)" fill="#f0b84e"/>
  <path d="M246 235V126" stroke="#f0b84e" stroke-width="12" stroke-linecap="round"/>
</svg>
