<svg xmlns="http://www.w3.org/2000/svg" viewBox="0 0 1024 1024">
  <rect width="1024" height="1024" fill="#010101"/>
  <text
    x="512"
    y="450"
    fill="#ffffff"
    font-family="-apple-system, BlinkMacSystemFont, 'SF Pro Display', 'Helvetica Neue', Arial, sans-serif"
    font-size="150"
    font-weight="300"
    text-anchor="middle">Piano</text>

  <g transform="translate(226 570)">
    <g fill="#fbfbfb">
      <rect x="0" y="0" width="91" height="228"/>
      <rect x="96" y="0" width="91" height="228"/>
      <rect x="192" y="0" width="91" height="228"/>
      <rect x="288" y="0" width="91" height="228"/>
      <rect x="384" y="0" width="91" height="228"/>
      <rect x="480" y="0" width="91" height="228"/>
    </g>
    <g stroke="#d6d6d6" stroke-width="3">
      <line x1="91" y1="0" x2="91" y2="228"/>
      <line x1="187" y1="0" x2="187" y2="228"/>
      <line x1="283" y1="0" x2="283" y2="228"/>
      <line x1="379" y1="0" x2="379" y2="228"/>
      <line x1="475" y1="0" x2="475" y2="228"/>
    </g>
    <g fill="#010101">
      <rect x="38" y="0" width="62" height="130"/>
      <rect x="130" y="0" width="62" height="130"/>
      <rect x="329" y="0" width="62" height="130"/>
      <rect x="421" y="0" width="62" height="130"/>
    </g>
  </g>
</svg>
